# xmcd CD database file
#
# Track frame offsets:
#	150
#	22392
#	45505
#	71641
#	99368
#	124528
#	155529
#	184443
#	218953
#	242453
#	263841
#	295123
#	315370
#
# Disc length: 4371 seconds
#
# Revision: 0
# Processed by: cddbd v1.5.2PL0 Copyright (c) Steve Scherf et al.
# Submitted via: CDex 1.51
#
DISCID=b711110d
DTITLE=Christian Tamburr - Arrivals
DYEAR=2006
DGENRE=Jazz
TTITLE0=Manteca
TTITLE1=Theme for the Juv
TTITLE2=French Connection
TTITLE3=I Remember You
TTITLE4=You Don't Know What Love Is
TTITLE5=Pageant
TTITLE6=Secret Love
TTITLE7=Minuano (six-eight)
TTITLE8=Angel
TTITLE9=Swingin' at the Haven
TTITLE10=Forward Motion
TTITLE11=Cherokee
TTITLE12=In a Sentimental Mood
EXTD=YEAR: 2006
EXTT0=
EXTT1=
EXTT2=
EXTT3=
EXTT4=
EXTT5=
EXTT6=
EXTT7=
EXTT8=
EXTT9=
EXTT10=
EXTT11=
EXTT12=
PLAYORDER=
